Coordinates
version=1
nRows=15
nColumns=42
inDegrees=yes

Units are S.I. units (second, meters, Newtons, ...)
If the header above contains a line with 'inDegrees', this indicates whether rotational values are in degrees (yes) or radians (no).

endheader
time	pelvis_tilt	pelvis_list	pelvis_rotation	pelvis_tx	pelvis_ty	pelvis_tz	hip_flexion_r	hip_adduction_r	hip_rotation_r	knee_angle_r	knee_adduction_r	knee_angle_r_beta	ankle_angle_r	subtalar_angle_r	mtp_angle_r	hip_flexion_l	hip_adduction_l	hip_rotation_l	knee_angle_l	knee_adduction_l	knee_angle_l_beta	ankle_angle_l	subtalar_angle_l	mtp_angle_l	lumbar_extension	lumbar_bending	lumbar_rotation	arm_flex_r	arm_add_r	arm_rot_r	elbow_flex_r	pro_sup_r	wrist_flex_r	wrist_dev_r	arm_flex_l	arm_add_l	arm_rot_l	elbow_flex_l	pro_sup_l	wrist_flex_l	wrist_dev_l
      1.20000000	     -3.54015809	     -2.11293834	      5.28883389	     -0.72862607	      0.88292685	     -0.22960412	     26.60803290	     -7.12641231	     -9.16206580	     27.84172818	      9.86068948	      0.48592983	      8.25580320	    -11.82986597	     -7.59102889	     -1.82892277	    -11.05321132	     -0.35408350	      9.05940469	     21.39059122	      0.15811644	     16.09705487	      4.03751891	     -7.59102889	     -9.96239111	      4.58741334	     -4.09273958	     -3.94909795	    -12.30555482	     -8.32273260	     17.92397624	     90.00000001	      0.00000000	      0.00000000	     -2.89163096	    -15.41676570	      5.65246156	     25.75766019	     90.00000001	      0.00000000	      0.00000000
      1.21000000	     -3.77609496	     -1.82983982	      5.05652617	     -0.71941672	      0.88084877	     -0.22881251	     27.26665790	     -7.18486796	     -9.53784952	     24.65271555	      9.52888680	      0.43027106	      7.29188826	    -10.68427688	     -7.58931723	     -2.36109242	    -10.73141041	     -0.69356760	      9.10788149	     21.27438368	      0.15896252	     16.56101277	      4.02459846	     -7.58931723	     -9.93803524	      4.27481744	     -3.88271772	     -4.03842248	    -12.22966555	     -8.37041459	     18.07773185	     90.00000001	      0.00000000	      0.00000000	     -2.47294739	    -15.67611505	      5.72789477	     26.07712652	     90.00000001	      0.00000000	      0.00000000
      1.22000000	     -3.80279826	     -1.69843255	      4.95907485	     -0.70948079	      0.87896105	     -0.22796096	     27.31630597	     -7.06764546	     -9.17760535	     20.95397376	      9.57385847	      0.36571583	      6.03151406	    -10.71314796	     -7.58133470	     -3.24895816	    -10.76176384	     -0.96282947	      8.89212256	     21.48328413	      0.15519682	     17.07702584	      4.22262197	     -7.58133470	    -10.04564786	      4.14829999	     -3.75385925	     -4.07373983	    -12.04370367	     -8.94473288	     17.91354365	     90.00000001	      0.00000000	      0.00000000	     -2.05715283	    -16.05344952	      6.66360353	     26.11546684	     90.00000001	      0.00000000	      0.00000000
      1.23000000	     -3.85844879	     -1.55606237	      5.09093416	     -0.69906373	      0.87693855	     -0.22730777	     27.34612493	     -7.09986444	     -9.65197722	     17.59605574	      9.40815700	      0.30710911	      5.16599673	     -9.38360146	     -7.57934207	     -4.00883022	    -10.75954090	     -1.11242597	      8.87051316	     21.59509717	      0.15481966	     17.51541955	      4.34600415	     -7.57934207	    -10.04216108	      4.02767306	     -3.89837795	     -4.24963178	    -11.90733004	     -9.02077505	     17.97097632	     90.00000001	      0.00000000	      0.00000000	     -1.79582499	    -16.32806796	      6.76661166	     26.29235594	     90.00000001	      0.00000000	      0.00000000
      1.24000000	     -3.82967470	     -1.45494004	      5.32107852	     -0.68818301	      0.87498672	     -0.22675637	     27.14274967	     -7.11095456	    -10.04842882	     14.32271686	      9.28366840	      0.24997857	      4.45172210	     -8.26317571	     -7.57688961	     -4.91714851	    -10.82300663	     -1.15240207	      8.73615988	     21.70807159	      0.15247475	     17.89552881	      4.57978153	     -7.57688961	    -10.07444596	      3.97926074	     -4.08722975	     -4.43491391	    -11.77752171	     -9.17654622	     17.90269640	     90.00000001	      0.00000000	      0.00000000	     -1.54132145	    -16.58256840	      7.03587291	     26.38951967	     90.00000001	      0.00000000	      0.00000000
      1.25000000	     -3.82536605	     -1.34568381	      5.63775723	     -0.67701350	      0.87299892	     -0.22626322	     26.92328012	     -7.19511793	    -10.48947928	     11.35963448	      9.21755666	      0.19826302	      3.81377012	     -7.16262532	     -7.57455905	     -5.76992772	    -10.89822107	     -1.13566735	      8.65791298	     21.82208989	      0.15110909	     18.21902284	      4.77269811	     -7.57455905	    -10.03997961	      3.93505144	     -4.37732697	     -4.63648541	    -11.63834479	     -9.35647432	     17.82297756	     90.00000001	      0.00000000	      0.00000000	     -1.36072937	    -16.84571587	      7.33401683	     26.45164256	     90.00000001	      0.00000000	      0.00000000
      1.26000000	     -3.87076056	     -1.19025414	      6.05061551	     -0.66574213	      0.87098926	     -0.22590124	     26.79053692	     -7.41758120	    -11.08405936	      8.93072967	      9.20776118	      0.15587064	      3.31736091	     -6.17029255	     -7.57339531	     -6.48566445	    -10.91418374	     -0.99110512	      8.72814782	     21.88261555	      0.15233492	     18.44609723	      4.90713071	     -7.57339531	     -9.93401562	      3.85719379	     -4.80657086	     -4.84380294	    -11.52584329	     -9.45431723	     17.78324466	     90.00000001	      0.00000000	      0.00000000	     -1.22257021	    -17.05809053	      7.48425579	     26.50041008	     90.00000001	      0.00000000	      0.00000000
      1.27000000	     -3.91689881	     -1.08751477	      6.38891962	     -0.65422286	      0.86900366	     -0.22548336	     26.69435103	     -7.58173016	    -11.58954238	      6.98495996	      9.25903020	      0.12191055	      3.02022803	     -5.34287030	     -7.57251448	     -7.25031763	    -10.98917775	     -0.91878962	      8.74200905	     21.91538287	      0.15257684	     18.61624102	      5.02998368	     -7.57251448	     -9.79895168	      3.85321536	     -5.08872533	     -5.09487841	    -11.42968653	     -9.54456195	     17.68769929	     90.00000001	      0.00000000	      0.00000000	     -1.13458627	    -17.22640169	      7.61862796	     26.52555384	     90.00000001	      0.00000000	      0.00000000
      1.28000000	     -3.89366462	     -1.01511108	      6.71128257	     -0.64254230	      0.86719227	     -0.22486586	     26.53126284	     -7.62562535	    -11.75884447	      5.45683574	      9.20392406	      0.09523975	      2.73362802	     -4.43857018	     -7.57145171	     -8.11243186	    -11.19540225	     -0.83650806	      8.72569134	     22.08383064	      0.15229204	     18.76640839	      5.17586717	     -7.57145171	     -9.73981755	      3.87065234	     -5.40408962	     -5.26724522	    -11.31232347	     -9.66854903	     17.57860702	     90.00000001	      0.00000000	      0.00000000	     -1.05895310	    -17.41675381	      7.81330126	     26.51731186	     90.00000001	      0.00000000	      0.00000000
      1.29000000	     -4.04537179	     -0.89077096	      6.93393632	     -0.63087400	      0.86530101	     -0.22422865	     26.80195125	     -7.79425465	    -12.13562412	      4.93221651	      9.25833265	      0.08608342	      2.68730553	     -4.22981285	     -7.57102449	     -8.73965526	    -11.26379878	     -0.87565918	      8.85308343	     22.11261092	      0.15451545	     18.79012388	      5.20382928	     -7.57102449	     -9.49208584	      3.81991648	     -5.58135748	     -5.55214524	    -11.25082050	     -9.70921327	     17.52776087	     90.00000001	      0.00000000	      0.00000000	     -1.03989612	    -17.53126812	      7.84552286	     26.54923027	     90.00000001	      0.00000000	      0.00000000
      1.30000000	     -3.97330036	     -0.93804097	      7.31867996	     -0.61899256	      0.86387470	     -0.22367420	     26.57927148	     -7.77745098	    -12.22305337	      4.33453666	      9.28279076	      0.07565194	      2.29777090	     -3.60280906	     -7.57019374	     -9.48886177	    -11.60957282	     -0.50003176	      9.05781514	     22.16131752	      0.15808870	     18.79588331	      5.36015467	     -7.57019374	     -9.45174225	      4.03413211	     -5.92630518	     -5.66053706	    -11.22294045	     -9.80707379	     17.43034675	     90.00000001	      0.00000000	      0.00000000	     -1.02561474	    -17.61449810	      7.99694687	     26.50475427	     90.00000001	      0.00000000	      0.00000000
      1.31000000	     -4.07340030	     -0.90983820	      7.48241819	     -0.60709138	      0.86244214	     -0.22281004	     26.78247439	     -7.78444417	    -12.10954176	      4.58118175	      9.31154127	      0.07995671	      2.18966286	     -3.45899487	     -7.56981951	    -10.05006656	    -11.78587439	     -0.33727006	      9.35912125	     22.08362039	      0.16334748	     18.73496800	      5.39954081	     -7.56981951	     -9.26365395	      4.11130523	     -6.06487610	     -5.91909025	    -11.17678941	     -9.82849914	     17.43672137	     90.00000001	      0.00000000	      0.00000000	     -1.09633684	    -17.67074307	      8.00301375	     26.53661126	     90.00000001	      0.00000000	      0.00000000
      1.32000000	     -3.96176903	     -1.10065826	      7.74639508	     -0.59502459	      0.86143465	     -0.22188245	     26.69346878	     -7.56564247	    -12.29025541	      5.12618770	      9.30899458	      0.08946885	      1.42155122	     -3.31888595	     -7.56883400	    -10.71655647	    -12.38065642	      0.01312609	      9.78306983	     22.24348297	      0.17074678	     18.54867293	      5.48255854	     -7.56883400	     -9.28302021	      4.48932607	     -6.26897479	     -5.99984224	    -11.16255663	     -9.90589065	     17.32928935	     90.00000001	      0.00000000	      0.00000000	     -1.13800561	    -17.70678439	      8.11760883	     26.46086065	     90.00000001	      0.00000000	      0.00000000
      1.33000000	     -3.92083757	     -1.22877541	      7.91199468	     -0.58274720	      0.86059484	     -0.22083493	     26.71174213	     -7.38841782	    -11.98120086	      6.01315951	      9.35138983	      0.10494943	      0.97159924	     -3.26425773	     -7.56814783	    -11.25592984	    -12.79031969	      0.45296500	     10.33942067	     22.16945887	      0.18045693	     18.33549830	      5.52413914	     -7.56814783	     -9.15931811	      4.74050055	     -6.38153549	     -6.18030258	    -11.18089358	     -9.94480881	     17.31929544	     90.00000001	      0.00000000	      0.00000000	     -1.27217092	    -17.68597509	      8.15334795	     26.44629253	     90.00000001	      0.00000000	      0.00000000
      1.34000000	     -3.79415637	     -1.43408635	      8.04805114	     -0.57044777	      0.86010064	     -0.21964775	     26.69559464	     -7.11589701	    -11.72753239	      7.30329484	      9.38652023	      0.12746654	      0.22751218	     -3.39529453	     -7.56736319	    -11.74706239	    -13.35324974	      0.96258293	     11.09513125	     22.23376098	      0.19364657	     17.96364171	      5.49977289	     -7.56736319	     -9.17137761	      5.11374912	     -6.46696260	     -6.26895953	    -11.21811427	     -9.97581926	     17.30318692	     90.00000001	      0.00000000	      0.00000000	     -1.39638638	    -17.64412344	      8.18153334	     26.40485001	     90.00000001	      0.00000000	      0.00000000
